<?xml version="1.0" standalone="no"?><!DOCTYPE svg PUBLIC "-//W3C//DTD SVG 1.1//EN" "http://www.w3.org/Graphics/SVG/1.1/DTD/svg11.dtd"><svg class="icon" width="200px" height="200.00px" viewBox="0 0 1024 1024" version="1.1" xmlns="http://www.w3.org/2000/svg"><path d="M556.45 334.22H423.11v-66.67h133.34v-44.44H423.11v-66.67h133.34V112H378.67v266.66h177.78v-44.44zM176.45 196.44l91.1 182.22h66.67V112h-66.67v177.78L178.67 112H112v266.66h66.67l-2.22-182.22z" fill="#43B7FA" /><path d="M112 489.78h317.1v55.07H112zM112 673.35h317.1v55.07H112zM112 856.93h317.1V912H112z" fill="#43B7FA" /><path d="M512 912h355.56V489.78H512z m54.85-367.37H812.7v312.51H566.85zM867.56 112l-44.45 200-44.44-200h-44.44l-44.45 200-44.44-200h-44.45l44.45 266.66h66.67l42.22-202.22 46.66 202.22h66.67L912 112h-44.44z" fill="#43B7FA" /></svg>