<?xml version="1.0" standalone="no"?><!DOCTYPE svg PUBLIC "-//W3C//DTD SVG 1.1//EN" "http://www.w3.org/Graphics/SVG/1.1/DTD/svg11.dtd"><svg class="icon" width="200px" height="200.00px" viewBox="0 0 1024 1024" version="1.1" xmlns="http://www.w3.org/2000/svg"><path d="M787.2 588.8h12.8V179.2c0-57.6-44.8-102.4-102.4-102.4H601.6C601.6 38.4 569.6 0 524.8 0H371.2c-38.4 0-76.8 32-76.8 76.8H198.4c-57.6 6.4-102.4 51.2-102.4 102.4v601.6c0 57.6 44.8 102.4 102.4 102.4h326.4v-25.6c0-147.2 115.2-268.8 262.4-268.8zM371.2 57.6h153.6c12.8 0 25.6 12.8 25.6 25.6s-12.8 25.6-25.6 25.6H371.2c-12.8 0-25.6-12.8-25.6-25.6s12.8-25.6 25.6-25.6zM300.8 339.2h300.8c12.8 0 25.6 12.8 25.6 25.6s-12.8 25.6-25.6 25.6H300.8c-12.8 0-25.6-12.8-25.6-25.6 0-19.2 6.4-25.6 25.6-25.6z m198.4 288H300.8c-12.8 0-25.6-12.8-25.6-25.6s12.8-25.6 25.6-25.6h198.4c12.8 0 25.6 12.8 25.6 25.6 0 19.2-12.8 25.6-25.6 25.6zM300.8 505.6c-12.8 0-25.6-12.8-25.6-25.6s12.8-25.6 25.6-25.6h300.8c12.8 0 25.6 12.8 25.6 25.6s-12.8 25.6-25.6 25.6H300.8z" fill="#040000" /><path d="M774.4 755.2m-89.6 0a89.6 89.6 0 1 0 179.2 0 89.6 89.6 0 1 0-179.2 0Z" fill="#040000" /><path d="M780.8 851.2c-96 0-166.4 76.8-172.8 166.4h345.6c0-96-76.8-166.4-172.8-166.4z" fill="#040000" /></svg>